<?xml version="1.0" encoding="UTF-8"?>
<svg xmlns="http://www.w3.org/2000/svg" xmlns:xlink="http://www.w3.org/1999/xlink" width="210px" height="30px" viewBox="0 0 208 30" version="1.1">
<defs>
<clipPath id="clip1">
  <path d="M 83 6 L 99.242188 6 L 99.242188 30 L 83 30 Z M 83 6 "/>
</clipPath>
</defs>
<g id="surface1">
<path style=" stroke:none;fill-rule:nonzero;fill:rgb(9.803922%,22.745098%,54.901961%);fill-opacity:1;" d="M 14.957031 7.191406 C 15.191406 7.121094 15.390625 7.054688 15.59375 7 C 17.101562 6.589844 18.632812 6.335938 20.191406 6.257812 C 21.273438 6.203125 22.347656 6.234375 23.402344 6.5 C 23.792969 6.601562 24.183594 6.726562 24.546875 6.902344 C 25.578125 7.398438 26.167969 8.261719 26.460938 9.351562 C 26.625 9.980469 26.6875 10.621094 26.6875 11.273438 L 26.6875 22.976562 L 22.164062 23.015625 C 21.929688 23.015625 21.761719 22.921875 21.621094 22.738281 C 21.40625 22.453125 21.171875 22.179688 20.949219 21.902344 C 20.914062 21.890625 20.882812 21.878906 20.847656 21.867188 C 20.789062 21.949219 20.742188 22.042969 20.671875 22.117188 C 19.972656 22.867188 19.101562 23.257812 18.078125 23.304688 C 17.460938 23.335938 16.84375 23.308594 16.242188 23.152344 C 15.019531 22.835938 14.183594 22.085938 13.707031 20.921875 C 13.476562 20.359375 13.34375 19.773438 13.285156 19.175781 C 13.199219 18.28125 13.195312 17.386719 13.367188 16.496094 C 13.738281 14.5625 14.859375 13.304688 16.726562 12.710938 C 17.59375 12.4375 18.488281 12.335938 19.394531 12.328125 C 19.753906 12.328125 20.113281 12.328125 20.472656 12.328125 C 20.582031 12.328125 20.6875 12.316406 20.832031 12.308594 C 20.839844 11.90625 20.894531 11.519531 20.777344 11.144531 C 20.6875 10.863281 20.46875 10.699219 20.191406 10.652344 C 19.882812 10.597656 19.570312 10.558594 19.261719 10.570312 C 18.125 10.609375 17.015625 10.851562 15.914062 11.113281 C 15.6875 11.167969 15.464844 11.226562 15.242188 11.28125 C 15.171875 11.296875 15.101562 11.300781 14.996094 11.3125 Z M 20.851562 15.109375 C 20.53125 15.042969 20.25 15.089844 19.972656 15.136719 C 19.464844 15.21875 19.144531 15.511719 19.007812 16.007812 C 18.980469 16.105469 18.960938 16.203125 18.941406 16.304688 C 18.804688 17.035156 18.804688 17.773438 18.898438 18.511719 C 18.925781 18.726562 18.984375 18.949219 19.074219 19.148438 C 19.257812 19.578125 19.660156 19.796875 20.121094 19.746094 C 20.222656 19.734375 20.324219 19.71875 20.421875 19.695312 C 20.820312 19.597656 20.847656 19.5625 20.851562 19.152344 C 20.851562 17.898438 20.851562 16.640625 20.851562 15.382812 C 20.851562 15.300781 20.851562 15.21875 20.851562 15.109375 Z M 20.851562 15.109375 "/>
<path style=" stroke:none;fill-rule:nonzero;fill:rgb(9.803922%,22.745098%,54.901961%);fill-opacity:1;" d="M 60.113281 23.015625 C 60.113281 24.988281 60.113281 26.929688 60.113281 28.890625 C 59.980469 28.90625 59.875 28.929688 59.769531 28.929688 C 58.046875 28.933594 56.324219 28.933594 54.597656 28.929688 C 54.507812 28.929688 54.417969 28.917969 54.3125 28.910156 C 54.296875 28.824219 54.277344 28.753906 54.273438 28.683594 C 54.265625 28.609375 54.269531 28.535156 54.269531 28.460938 C 54.269531 21.3125 54.269531 14.164062 54.269531 7.011719 C 54.269531 6.492188 54.273438 6.550781 54.742188 6.550781 C 56.042969 6.546875 57.339844 6.554688 58.640625 6.542969 C 58.914062 6.539062 59.113281 6.625 59.277344 6.847656 C 59.457031 7.089844 59.664062 7.316406 59.875 7.566406 C 59.96875 7.5 60.058594 7.441406 60.144531 7.375 C 61.175781 6.570312 62.347656 6.203125 63.644531 6.234375 C 64.179688 6.246094 64.710938 6.320312 65.226562 6.460938 C 66.0625 6.691406 66.714844 7.175781 67.210938 7.878906 C 67.734375 8.617188 68.035156 9.445312 68.242188 10.316406 C 68.527344 11.535156 68.625 12.777344 68.65625 14.027344 C 68.695312 15.53125 68.621094 17.023438 68.292969 18.496094 C 68.089844 19.410156 67.773438 20.285156 67.261719 21.078125 C 66.417969 22.375 65.207031 23.0625 63.699219 23.242188 C 62.582031 23.378906 61.472656 23.347656 60.382812 23.042969 C 60.3125 23.027344 60.238281 23.027344 60.113281 23.015625 Z M 60.105469 15.070312 C 60.105469 15.070312 60.109375 15.070312 60.109375 15.070312 C 60.109375 16.308594 60.109375 17.546875 60.109375 18.785156 C 60.113281 19.066406 60.136719 19.097656 60.410156 19.152344 C 60.609375 19.191406 60.808594 19.230469 61.011719 19.246094 C 61.449219 19.28125 61.835938 19.160156 62.109375 18.796875 C 62.214844 18.660156 62.296875 18.503906 62.367188 18.34375 C 62.636719 17.722656 62.742188 17.066406 62.777344 16.402344 C 62.84375 15.171875 62.875 13.945312 62.785156 12.714844 C 62.753906 12.246094 62.683594 11.78125 62.574219 11.320312 C 62.402344 10.621094 62.085938 10.539062 61.496094 10.558594 C 61.476562 10.558594 61.457031 10.566406 61.441406 10.566406 C 61.109375 10.578125 60.820312 10.722656 60.523438 10.847656 C 60.140625 11.007812 60.105469 11.058594 60.105469 11.464844 C 60.105469 12.667969 60.105469 13.867188 60.105469 15.070312 Z M 60.105469 15.070312 "/>
<g clip-path="url(#clip1)" clip-rule="nonzero">
<path style=" stroke:none;fill-rule:nonzero;fill:rgb(9.803922%,22.745098%,54.901961%);fill-opacity:1;" d="M 84.492188 28.683594 C 84.492188 27.238281 84.492188 25.835938 84.492188 24.402344 C 84.71875 24.4375 84.921875 24.476562 85.128906 24.507812 C 85.894531 24.628906 86.65625 24.769531 87.421875 24.855469 C 87.773438 24.898438 88.140625 24.851562 88.496094 24.816406 C 88.765625 24.789062 88.964844 24.613281 89.117188 24.394531 C 89.375 24.015625 89.460938 23.582031 89.507812 23.136719 C 89.515625 23.050781 89.480469 22.957031 89.449219 22.871094 C 87.910156 18.515625 86.371094 14.160156 84.832031 9.804688 C 84.492188 8.847656 84.152344 7.890625 83.8125 6.933594 C 83.773438 6.828125 83.746094 6.722656 83.707031 6.585938 C 83.804688 6.570312 83.882812 6.550781 83.957031 6.550781 C 85.902344 6.550781 87.847656 6.550781 89.792969 6.550781 C 89.863281 6.550781 89.9375 6.566406 90.03125 6.578125 C 90.152344 7.320312 90.277344 8.058594 90.394531 8.792969 C 90.515625 9.53125 90.632812 10.273438 90.753906 11.011719 C 90.875 11.738281 90.996094 12.46875 91.117188 13.199219 C 91.234375 13.9375 91.351562 14.675781 91.476562 15.414062 C 91.597656 16.148438 91.703125 16.882812 91.84375 17.609375 C 91.867188 17.609375 91.894531 17.605469 91.917969 17.605469 C 91.9375 17.53125 91.96875 17.457031 91.976562 17.378906 C 92.074219 16.527344 92.167969 15.671875 92.265625 14.816406 C 92.367188 13.871094 92.472656 12.925781 92.574219 11.980469 C 92.675781 11.078125 92.773438 10.179688 92.871094 9.277344 C 92.964844 8.441406 93.054688 7.605469 93.152344 6.769531 C 93.171875 6.574219 93.203125 6.554688 93.425781 6.550781 C 94.171875 6.546875 94.917969 6.546875 95.664062 6.546875 C 96.742188 6.546875 97.820312 6.546875 98.898438 6.546875 C 99 6.546875 99.097656 6.546875 99.242188 6.546875 C 99.203125 6.753906 99.183594 6.925781 99.140625 7.09375 C 98.574219 9.234375 98.007812 11.378906 97.441406 13.523438 C 96.5 17.078125 95.5625 20.632812 94.621094 24.183594 C 94.394531 25.046875 94.101562 25.882812 93.671875 26.664062 C 93.136719 27.628906 92.417969 28.394531 91.386719 28.828125 C 90.773438 29.085938 90.132812 29.203125 89.476562 29.234375 C 88.308594 29.292969 87.15625 29.171875 86.007812 28.988281 C 85.589844 28.921875 85.175781 28.835938 84.761719 28.757812 C 84.671875 28.738281 84.585938 28.707031 84.492188 28.683594 Z M 84.492188 28.683594 "/>
</g>
<path style=" stroke:none;fill-rule:nonzero;fill:rgb(9.803922%,22.745098%,54.901961%);fill-opacity:1;" d="M 11.5 5.96875 C 11.355469 5.9375 11.238281 5.917969 11.121094 5.890625 C 10.078125 5.621094 9.023438 5.398438 7.941406 5.367188 C 7.683594 5.359375 7.425781 5.375 7.167969 5.410156 C 6.167969 5.539062 5.71875 6.296875 5.761719 7.238281 C 5.789062 7.8125 6.015625 8.300781 6.460938 8.664062 C 7.140625 9.21875 7.828125 9.761719 8.523438 10.296875 C 9.097656 10.742188 9.695312 11.164062 10.203125 11.695312 C 11.1875 12.722656 11.746094 13.957031 11.941406 15.359375 C 12.113281 16.570312 12.085938 17.777344 11.8125 18.972656 C 11.324219 21.097656 9.996094 22.402344 7.917969 22.964844 C 6.859375 23.25 5.777344 23.328125 4.6875 23.324219 C 3.34375 23.316406 2.019531 23.167969 0.726562 22.800781 C 0.535156 22.746094 0.351562 22.664062 0.160156 22.597656 C 0.152344 22.402344 0.136719 22.210938 0.136719 22.015625 C 0.136719 20.84375 0.136719 19.667969 0.136719 18.492188 C 0.136719 18.394531 0.136719 18.292969 0.136719 18.15625 C 0.414062 18.207031 0.65625 18.25 0.898438 18.292969 C 1.792969 18.460938 2.6875 18.628906 3.585938 18.785156 C 4.035156 18.867188 4.488281 18.824219 4.929688 18.714844 C 6.007812 18.449219 6.527344 17.371094 6.070312 16.351562 C 5.875 15.910156 5.5625 15.554688 5.207031 15.246094 C 4.695312 14.804688 4.167969 14.386719 3.652344 13.953125 C 3.097656 13.480469 2.523438 13.027344 2.003906 12.519531 C 0.691406 11.238281 0.0546875 9.652344 0.00390625 7.824219 C -0.015625 6.980469 0.0273438 6.140625 0.253906 5.320312 C 0.769531 3.457031 1.949219 2.203125 3.734375 1.507812 C 4.628906 1.160156 5.554688 0.984375 6.511719 0.949219 C 8.070312 0.890625 9.601562 1.054688 11.097656 1.503906 C 11.1875 1.527344 11.273438 1.554688 11.363281 1.585938 C 11.460938 1.617188 11.515625 1.683594 11.515625 1.789062 C 11.515625 1.855469 11.519531 1.917969 11.519531 1.984375 C 11.519531 3.203125 11.519531 4.425781 11.515625 5.648438 C 11.519531 5.746094 11.507812 5.84375 11.5 5.96875 Z M 11.5 5.96875 "/>
<path style=" stroke:none;fill-rule:nonzero;fill:rgb(9.803922%,22.745098%,54.901961%);fill-opacity:1;" d="M 71.554688 7.191406 C 71.789062 7.121094 71.988281 7.054688 72.191406 7 C 73.699219 6.589844 75.230469 6.335938 76.789062 6.257812 C 77.875 6.203125 78.945312 6.234375 80 6.5 C 80.390625 6.601562 80.78125 6.726562 81.144531 6.902344 C 82.175781 7.398438 82.769531 8.261719 83.058594 9.351562 C 83.226562 9.980469 83.285156 10.621094 83.285156 11.273438 L 83.285156 22.976562 L 78.761719 23.015625 C 78.527344 23.015625 78.359375 22.921875 78.21875 22.738281 C 78.003906 22.453125 77.773438 22.179688 77.546875 21.902344 C 77.511719 21.890625 77.480469 21.878906 77.445312 21.867188 C 77.390625 21.949219 77.339844 22.042969 77.273438 22.117188 C 76.570312 22.867188 75.699219 23.257812 74.675781 23.304688 C 74.058594 23.335938 73.445312 23.308594 72.839844 23.152344 C 71.621094 22.835938 70.78125 22.085938 70.304688 20.921875 C 70.074219 20.359375 69.945312 19.773438 69.886719 19.175781 C 69.796875 18.28125 69.792969 17.386719 69.964844 16.496094 C 70.339844 14.5625 71.457031 13.304688 73.324219 12.710938 C 74.191406 12.4375 75.085938 12.335938 75.992188 12.328125 C 76.351562 12.328125 76.710938 12.328125 77.070312 12.328125 C 77.179688 12.328125 77.289062 12.316406 77.433594 12.308594 C 77.441406 11.90625 77.492188 11.519531 77.375 11.144531 C 77.285156 10.863281 77.066406 10.699219 76.789062 10.652344 C 76.484375 10.597656 76.167969 10.558594 75.859375 10.570312 C 74.722656 10.609375 73.613281 10.851562 72.511719 11.113281 C 72.289062 11.167969 72.066406 11.226562 71.839844 11.28125 C 71.773438 11.296875 71.699219 11.300781 71.597656 11.3125 Z M 77.449219 15.109375 C 77.128906 15.042969 76.847656 15.089844 76.570312 15.136719 C 76.0625 15.21875 75.742188 15.511719 75.609375 16.007812 C 75.582031 16.105469 75.558594 16.203125 75.542969 16.304688 C 75.402344 17.035156 75.40625 17.773438 75.5 18.511719 C 75.527344 18.726562 75.585938 18.949219 75.671875 19.148438 C 75.855469 19.578125 76.257812 19.796875 76.722656 19.746094 C 76.820312 19.734375 76.921875 19.71875 77.019531 19.695312 C 77.417969 19.597656 77.449219 19.5625 77.449219 19.152344 C 77.449219 17.898438 77.449219 16.640625 77.449219 15.382812 C 77.449219 15.300781 77.449219 15.21875 77.449219 15.109375 Z M 77.449219 15.109375 "/>
<path style=" stroke:none;fill-rule:nonzero;fill:rgb(9.803922%,22.745098%,54.901961%);fill-opacity:1;" d="M 52.484375 16.703125 C 49.832031 16.703125 47.21875 16.703125 44.609375 16.703125 C 44.480469 16.988281 44.515625 17.257812 44.574219 17.515625 C 44.71875 18.171875 45.074219 18.628906 45.769531 18.78125 C 46.507812 18.945312 47.253906 18.949219 47.996094 18.847656 C 49.078125 18.703125 50.160156 18.511719 51.242188 18.339844 C 51.359375 18.320312 51.476562 18.308594 51.589844 18.292969 C 51.65625 18.507812 51.683594 21.785156 51.625 22.480469 C 51.542969 22.511719 51.457031 22.558594 51.359375 22.585938 C 49.441406 23.203125 47.476562 23.421875 45.46875 23.285156 C 44.660156 23.230469 43.855469 23.121094 43.078125 22.871094 C 41.375 22.332031 40.183594 21.230469 39.488281 19.578125 C 39.148438 18.765625 38.953125 17.910156 38.835938 17.035156 C 38.6875 15.933594 38.683594 14.820312 38.738281 13.710938 C 38.792969 12.5625 38.980469 11.433594 39.382812 10.351562 C 40.199219 8.152344 41.753906 6.832031 44.050781 6.40625 C 45.378906 6.15625 46.707031 6.15625 48.027344 6.484375 C 49.578125 6.867188 50.707031 7.785156 51.4375 9.207031 C 51.910156 10.121094 52.160156 11.105469 52.3125 12.113281 C 52.453125 13.03125 52.492188 13.953125 52.488281 14.878906 C 52.480469 15.472656 52.484375 16.0625 52.484375 16.703125 Z M 47.027344 13.539062 C 47.042969 13.484375 47.058594 13.457031 47.058594 13.433594 C 47.042969 12.703125 47.042969 11.972656 47.007812 11.242188 C 46.988281 10.882812 46.890625 10.53125 46.738281 10.199219 C 46.625 9.960938 46.453125 9.785156 46.195312 9.722656 C 45.777344 9.628906 45.1875 9.703125 44.902344 10.277344 C 44.804688 10.476562 44.726562 10.6875 44.679688 10.902344 C 44.503906 11.683594 44.511719 12.480469 44.519531 13.277344 C 44.519531 13.542969 44.535156 13.554688 44.804688 13.554688 C 45.476562 13.558594 46.152344 13.554688 46.824219 13.554688 C 46.886719 13.554688 46.953125 13.546875 47.027344 13.539062 Z M 47.027344 13.539062 "/>
<path style=" stroke:none;fill-rule:nonzero;fill:rgb(9.803922%,22.745098%,54.901961%);fill-opacity:1;" d="M 40.003906 4.421875 C 39.691406 4.375 39.421875 4.320312 39.148438 4.292969 C 38.480469 4.214844 37.8125 4.136719 37.144531 4.082031 C 36.171875 4.003906 35.855469 4.617188 35.835938 5.320312 C 35.828125 5.707031 35.835938 6.09375 35.835938 6.511719 C 35.980469 6.523438 36.105469 6.542969 36.230469 6.542969 C 37.007812 6.550781 37.78125 6.550781 38.554688 6.550781 C 38.664062 6.550781 38.773438 6.550781 38.929688 6.550781 C 38.671875 7.804688 38.421875 9.019531 38.164062 10.257812 C 37.394531 10.257812 36.640625 10.257812 35.855469 10.257812 C 35.847656 10.4375 35.835938 10.589844 35.835938 10.746094 C 35.832031 13.53125 35.835938 16.316406 35.835938 19.101562 C 35.835938 20.210938 35.835938 21.320312 35.835938 22.433594 C 35.835938 22.597656 35.835938 22.761719 35.835938 22.894531 C 35.800781 22.933594 35.792969 22.941406 35.785156 22.949219 C 35.78125 22.953125 35.773438 22.960938 35.765625 22.960938 C 35.71875 22.96875 35.671875 22.980469 35.628906 22.980469 C 33.800781 22.980469 31.976562 22.980469 30.152344 22.980469 C 30.117188 22.980469 30.082031 22.964844 30.011719 22.957031 C 30.003906 22.792969 29.992188 22.628906 29.992188 22.46875 C 29.992188 20.097656 29.992188 17.730469 29.992188 15.359375 C 29.992188 13.789062 29.992188 12.214844 29.992188 10.640625 C 29.992188 10.535156 29.992188 10.425781 29.992188 10.292969 C 29.277344 10.207031 28.585938 10.292969 27.90625 10.242188 C 27.804688 9.972656 27.765625 7.320312 27.851562 6.570312 C 27.941406 6.566406 28.039062 6.550781 28.132812 6.550781 C 28.640625 6.546875 29.148438 6.550781 29.65625 6.542969 C 29.753906 6.542969 29.851562 6.53125 29.96875 6.519531 C 29.976562 6.371094 29.988281 6.242188 29.992188 6.117188 C 30.007812 5.496094 30.007812 4.875 30.042969 4.257812 C 30.074219 3.671875 30.226562 3.109375 30.464844 2.574219 C 30.980469 1.414062 31.890625 0.714844 33.070312 0.339844 C 33.902344 0.0703125 34.765625 0.0078125 35.632812 0 C 37.007812 -0.0078125 38.351562 0.1875 39.679688 0.519531 C 39.785156 0.542969 39.886719 0.585938 40 0.621094 C 40.003906 1.882812 40.003906 3.128906 40.003906 4.421875 Z M 40.003906 4.421875 "/>
<path style=" stroke:none;fill-rule:nonzero;fill:rgb(100%,100%,100%);fill-opacity:1;" d="M 115.554688 0.683594 L 148.183594 0.683594 C 150.8125 0.683594 152.941406 2.820312 152.941406 5.453125 L 152.941406 24.546875 C 152.941406 27.179688 150.8125 29.316406 148.183594 29.316406 L 115.554688 29.316406 C 112.925781 29.316406 110.796875 27.179688 110.796875 24.546875 L 110.796875 5.453125 C 110.796875 2.820312 112.925781 0.683594 115.554688 0.683594 Z M 115.554688 0.683594 "/>
<path style=" stroke:none;fill-rule:evenodd;fill:rgb(9.019608%,16.862745%,52.156863%);fill-opacity:1;" d="M 123.871094 19.820312 L 121.238281 19.820312 L 119.261719 12.238281 C 119.167969 11.890625 118.96875 11.582031 118.675781 11.4375 C 117.945312 11.070312 117.136719 10.78125 116.257812 10.632812 L 116.257812 10.34375 L 120.503906 10.34375 C 121.089844 10.34375 121.53125 10.78125 121.601562 11.289062 L 122.628906 16.757812 L 125.261719 10.34375 L 127.824219 10.34375 Z M 129.289062 19.820312 L 126.800781 19.820312 L 128.851562 10.34375 L 131.339844 10.34375 Z M 134.558594 12.96875 C 134.632812 12.457031 135.074219 12.164062 135.585938 12.164062 C 136.390625 12.09375 137.269531 12.238281 138 12.601562 L 138.441406 10.5625 C 137.707031 10.269531 136.902344 10.125 136.171875 10.125 C 133.753906 10.125 131.996094 11.4375 131.996094 13.257812 C 131.996094 14.644531 133.242188 15.371094 134.121094 15.8125 C 135.074219 16.25 135.4375 16.539062 135.367188 16.976562 C 135.367188 17.632812 134.632812 17.925781 133.902344 17.925781 C 133.023438 17.925781 132.144531 17.707031 131.339844 17.339844 L 130.898438 19.382812 C 131.777344 19.746094 132.730469 19.894531 133.609375 19.894531 C 136.316406 19.964844 138 18.65625 138 16.6875 C 138 14.207031 134.558594 14.0625 134.558594 12.96875 Z M 146.710938 19.820312 L 144.734375 10.34375 L 142.613281 10.34375 C 142.171875 10.34375 141.734375 10.632812 141.585938 11.070312 L 137.925781 19.820312 L 140.488281 19.820312 L 141 18.4375 L 144.148438 18.4375 L 144.441406 19.820312 Z M 142.980469 12.894531 L 143.710938 16.46875 L 141.660156 16.46875 Z M 142.980469 12.894531 "/>
<path style="fill:none;stroke-width:1;stroke-linecap:butt;stroke-linejoin:miter;stroke:rgb(94.901961%,95.686275%,96.862745%);stroke-opacity:1;stroke-miterlimit:4;" d="M 84.999361 0.501302 L 109.000432 0.501302 C 110.934195 0.501302 112.500169 2.068229 112.500169 3.998958 L 112.500169 18.001042 C 112.500169 19.931771 110.934195 21.498698 109.000432 21.498698 L 84.999361 21.498698 C 83.065599 21.498698 81.499624 19.931771 81.499624 18.001042 L 81.499624 3.998958 C 81.499624 2.068229 83.065599 0.501302 84.999361 0.501302 Z M 84.999361 0.501302 " transform="matrix(1.359477,0,0,1.363636,0,0)"/>
<path style=" stroke:none;fill-rule:nonzero;fill:rgb(100%,100%,100%);fill-opacity:1;" d="M 169.933594 0.683594 L 202.5625 0.683594 C 205.191406 0.683594 207.320312 2.820312 207.320312 5.453125 L 207.320312 24.546875 C 207.320312 27.179688 205.191406 29.316406 202.5625 29.316406 L 169.933594 29.316406 C 167.308594 29.316406 165.175781 27.179688 165.175781 24.546875 L 165.175781 5.453125 C 165.175781 2.820312 167.308594 0.683594 169.933594 0.683594 Z M 169.933594 0.683594 "/>
<path style=" stroke:none;fill-rule:evenodd;fill:rgb(92.941176%,0%,2.352941%);fill-opacity:1;" d="M 186.476562 21.039062 C 184.960938 22.285156 182.996094 23.039062 180.851562 23.039062 C 176.058594 23.039062 172.171875 19.289062 172.171875 14.664062 C 172.171875 10.039062 176.058594 6.289062 180.851562 6.289062 C 182.996094 6.289062 184.960938 7.042969 186.476562 8.289062 C 187.992188 7.042969 189.957031 6.289062 192.105469 6.289062 C 196.898438 6.289062 200.78125 10.039062 200.78125 14.664062 C 200.78125 19.289062 196.898438 23.039062 192.105469 23.039062 C 189.957031 23.039062 187.992188 22.285156 186.476562 21.039062 Z M 186.476562 21.039062 "/>
<path style=" stroke:none;fill-rule:evenodd;fill:rgb(97.647059%,62.745098%,0%);fill-opacity:1;" d="M 186.476562 21.039062 C 188.34375 19.5 189.527344 17.214844 189.527344 14.664062 C 189.527344 12.109375 188.34375 9.824219 186.476562 8.289062 C 187.992188 7.042969 189.957031 6.289062 192.105469 6.289062 C 196.894531 6.289062 200.78125 10.039062 200.78125 14.664062 C 200.78125 19.289062 196.894531 23.039062 192.105469 23.039062 C 189.957031 23.039062 187.992188 22.285156 186.476562 21.039062 Z M 186.476562 21.039062 "/>
<path style=" stroke:none;fill-rule:evenodd;fill:rgb(100%,36.862745%,0%);fill-opacity:1;" d="M 186.476562 21.035156 C 188.34375 19.5 189.527344 17.214844 189.527344 14.664062 C 189.527344 12.109375 188.34375 9.824219 186.476562 8.289062 C 184.613281 9.824219 183.429688 12.109375 183.429688 14.664062 C 183.429688 17.214844 184.613281 19.5 186.476562 21.035156 Z M 186.476562 21.035156 "/>
<path style="fill:none;stroke-width:1;stroke-linecap:butt;stroke-linejoin:miter;stroke:rgb(94.901961%,95.686275%,96.862745%);stroke-opacity:1;stroke-miterlimit:4;" d="M 124.99923 0.501302 L 149.0003 0.501302 C 150.934063 0.501302 152.500038 2.068229 152.500038 3.998958 L 152.500038 18.001042 C 152.500038 19.931771 150.934063 21.498698 149.0003 21.498698 L 124.99923 21.498698 C 123.068341 21.498698 121.499493 19.931771 121.499493 18.001042 L 121.499493 3.998958 C 121.499493 2.068229 123.068341 0.501302 124.99923 0.501302 Z M 124.99923 0.501302 " transform="matrix(1.359477,0,0,1.363636,0,0)"/>
</g>
</svg>
